<svg width="49" height="48" viewBox="0 0 49 48" fill="none" xmlns="http://www.w3.org/2000/svg">
<path d="M38.334 8H34.334V4H30.334V8H18.334V4H14.334V8H10.334C8.12798 8 6.33398 9.794 6.33398 12V40C6.33398 42.206 8.12798 44 10.334 44H38.334C40.54 44 42.334 42.206 42.334 40V12C42.334 9.794 40.54 8 38.334 8ZM38.338 40H10.334V16H38.334L38.338 40Z" fill="#027A48"/>
<path d="M22.334 34.8281L33.748 23.4141L30.92 20.5861L22.334 29.1721L17.748 24.5861L14.92 27.4141L22.334 34.8281Z" fill="#027A48"/>
</svg>
