<svg width="49" height="48" viewBox="0 0 49 48" fill="none" xmlns="http://www.w3.org/2000/svg">
<path d="M16.667 24C21.227 24 24.667 20.56 24.667 16C24.667 11.44 21.227 7.99997 16.667 7.99997C12.107 7.99997 8.66699 11.44 8.66699 16C8.66699 20.56 12.107 24 16.667 24ZM16.667 12C19.023 12 20.667 13.644 20.667 16C20.667 18.356 19.023 20 16.667 20C14.311 20 12.667 18.356 12.667 16C12.667 13.644 14.311 12 16.667 12ZM18.667 26H14.667C9.15299 26 4.66699 30.486 4.66699 36V38H8.66699V36C8.66699 32.692 11.359 30 14.667 30H18.667C21.975 30 24.667 32.692 24.667 36V38H28.667V36C28.667 30.486 24.181 26 18.667 26ZM37.395 5.27197L34.567 8.09997C37.209 10.746 38.667 14.262 38.667 18C38.667 21.738 37.209 25.254 34.567 27.9L37.395 30.728C40.795 27.326 42.667 22.806 42.667 18C42.667 13.194 40.795 8.67397 37.395 5.27197Z" fill="#027A48"/>
<path d="M31.7369 10.9282L28.9089 13.7602C30.0429 14.8902 30.6669 16.3962 30.6669 18.0002C30.6669 19.6042 30.0429 21.1102 28.9089 22.2402L31.7369 25.0722C33.6249 23.1842 34.6669 20.6742 34.6669 18.0002C34.6669 15.3262 33.6249 12.8162 31.7369 10.9282Z" fill="#027A48"/>
</svg>
